<svg width="500" height="398" viewBox="0 0 500 398" fill="none" xmlns="http://www.w3.org/2000/svg">
<g clip-path="url(#clip0)">
<path opacity="0.1" d="M293.232 67.1757C261.595 66.0758 231.458 55.8641 202.686 44.6893C173.913 33.5145 145.414 21.1323 114.534 15.2125C94.6727 11.4045 71.9566 10.8668 55.957 21.5136C40.5539 31.7792 35.5775 49.4505 32.9036 65.8656C30.8896 78.2136 29.7066 91.2068 35.2256 102.768C39.0531 110.794 45.8528 117.54 50.5505 125.254C66.9118 152.003 55.3509 184.99 37.6208 211.108C29.3106 223.363 19.6562 235.061 13.2427 248.094C6.82914 261.126 3.85703 276.079 9.46885 289.385C15.0367 302.584 28.2988 312.478 42.6607 319.444C71.8393 333.596 106.209 337.643 139.748 339.936C213.968 345.015 288.579 342.815 362.994 340.615C390.535 339.799 418.193 338.973 445.285 334.715C460.331 332.349 475.861 328.6 486.787 319.537C500.65 308.035 504.086 288.554 494.799 274.134C479.21 249.941 436.138 243.934 425.228 217.967C419.235 203.678 425.394 187.762 434.105 174.504C452.798 146.074 484.127 121.128 485.78 88.6307C486.914 66.3056 471.848 43.956 448.56 33.3923C424.152 22.2811 390.296 23.6889 372.297 42.0154C353.75 60.8991 321.165 68.1436 293.232 67.1757Z" fill="#032A2D"/>
<path d="M212.863 337.541L45.5448 336.724L28.9195 297.73L87.7068 293.462L77.4608 250.709L193.735 235.638L82.3932 196.932L92.2285 194.595L271.264 223.803L261.405 290.524L247.311 327.192L212.863 337.541Z" fill="#12D4E0"/>
<path d="M48.1113 320.392C48.1113 320.392 58.3768 318.75 64.5361 326.004C64.5361 326.004 60.0193 329.563 50.3012 324.635L48.1113 320.392Z" fill="#12D4E0"/>
<path d="M47.0357 320.231C47.0357 320.231 40.4853 328.292 43.7116 337.267C43.7116 337.267 49.0497 335.131 49.6314 324.249L47.0357 320.231Z" fill="#12D4E0"/>
<path d="M41.1501 306.979C41.1501 306.979 45.2563 299.446 61.6812 309.99C61.6812 309.99 59.4912 315.054 52.2369 314.643C44.9826 314.233 43.0663 310.948 41.1501 306.979Z" fill="#12D4E0"/>
<path d="M40.0893 306.436C40.0893 306.436 31.5689 305.458 30.7428 324.963C30.7428 324.963 36.1444 326.082 39.9818 319.913C43.8191 313.744 42.2451 310.283 40.0893 306.436Z" fill="#12D4E0"/>
<path d="M35.1277 290.876C35.1277 290.876 39.9183 277.6 57.3012 287.044C57.3012 287.044 53.3319 299.226 36.907 295.393L35.1277 290.876Z" fill="#12D4E0"/>
<path d="M29.7896 271.03C29.7896 271.03 38.8232 257.616 54.8375 270.052C54.8375 270.052 49.2256 282.645 31.1583 275.801L29.7896 271.03Z" fill="#12D4E0"/>
<path d="M27.8732 252.141C27.8732 252.141 38.4125 239.817 54.2703 252.141C54.2703 252.141 44.2785 262.954 27.8732 255.289V252.141Z" fill="#12D4E0"/>
<path d="M26.2309 233.795C26.2309 233.795 36.9071 220.929 52.1 233.111C52.1 233.111 40.0551 244.471 26.2309 236.806V233.795Z" fill="#12D4E0"/>
<path d="M27.189 217.507C27.189 217.507 38.4322 200.945 52.6476 212.169C52.6476 212.169 40.6027 226.404 27.189 220.655V217.507Z" fill="#12D4E0"/>
<path d="M29.7896 198.482C29.7896 198.482 41.6976 182.057 55.5218 194.649C55.5218 194.649 41.4238 208.884 29.7896 201.493V198.482Z" fill="#12D4E0"/>
<path d="M33.7589 181.475C33.7589 181.475 47.8569 166.038 60.156 172.187C60.156 172.187 45.4665 188.583 33.143 185.572L33.7589 181.475Z" fill="#12D4E0"/>
<path d="M38.6864 165.353C38.6864 165.353 54.9548 146.445 64.4187 152.761C64.4187 152.761 52.4325 167.426 37.5328 168.892L38.6864 165.353Z" fill="#12D4E0"/>
<path d="M45.799 146.655C45.799 146.655 60.0387 131.218 70.4412 135.051C70.4412 135.051 58.2594 151.065 43.8876 151.475L45.799 146.655Z" fill="#12D4E0"/>
<path d="M52.237 129.165C52.237 129.165 67.9775 114.382 74.8212 116.983C74.8212 116.983 63.4606 133.408 51.5526 132.45L52.237 129.165Z" fill="#12D4E0"/>
<path d="M58.5332 113.014C58.5332 113.014 72.0837 95.3521 79.4798 96.7208C79.4798 96.7208 71.2625 112.466 58.5332 114.808V113.014Z" fill="#12D4E0"/>
<path d="M65.3671 91.2362C65.3671 91.2362 77.3435 77.7003 83.8157 77.7297C83.8157 77.7297 74.3616 95.8165 64.8734 95.6503L65.3671 91.2362Z" fill="#12D4E0"/>
<path d="M69.4146 76.7374L80.9854 48.5414C80.9854 48.5414 81.5622 74.0292 67.9432 81.9679L69.4146 76.7374Z" fill="#12D4E0"/>
<path d="M74.1122 45.6426C74.1122 45.6426 76.0284 22.0954 74.7966 20.1791C74.7966 20.1791 83.0676 39.757 74.034 56.045L74.1122 45.6426Z" fill="#12D4E0"/>
<path d="M34.6778 290.564C34.6778 290.564 22.6818 283.128 14.9142 301.318C14.9142 301.318 25.5904 308.406 36.0906 295.203L34.6778 290.564Z" fill="#12D4E0"/>
<path d="M29.4034 270.272C29.4034 270.272 14.6895 263.56 7.55249 282.552C7.55249 282.552 18.9179 290.373 30.7428 275.072L29.4034 270.272Z" fill="#12D4E0"/>
<path d="M27.189 253.27C27.189 253.27 16.6497 240.947 0.791931 253.27C0.791931 253.27 10.7837 264.083 27.189 256.418V253.27Z" fill="#12D4E0"/>
<path d="M25.8691 233.795C25.8691 233.795 15.193 220.929 0 233.111C0 233.111 12.0449 244.471 25.8691 236.806V233.795Z" fill="#12D4E0"/>
<path d="M27.189 217.976C27.189 217.976 19.7 199.425 3.42181 207.403C3.42181 207.403 12.2208 223.852 26.5242 221.056L27.189 217.976Z" fill="#12D4E0"/>
<path d="M30.733 198.389C30.733 198.389 23.288 179.515 6.78009 188.265C6.78009 188.265 16.8892 205.565 29.9998 201.302L30.733 198.389Z" fill="#12D4E0"/>
<path d="M35.3476 181.568C35.3476 181.568 32.4146 160.876 18.7272 159.023C18.7272 159.023 21.6309 180.845 33.5047 185.298L35.3476 181.568Z" fill="#12D4E0"/>
<path d="M39.0336 165.392C39.0336 165.392 37.8897 140.462 26.5732 139.592C26.5732 139.592 26.9545 158.514 37.7577 168.922L39.0336 165.392Z" fill="#12D4E0"/>
<path d="M46.9721 145.956C46.9721 145.956 43.5992 125.225 32.7959 122.693C32.7959 122.693 34.1353 142.769 45.9016 151.045L46.9721 145.956Z" fill="#12D4E0"/>
<path d="M53.5175 129.336C53.5175 129.336 53.4051 107.739 46.8058 104.567C46.8058 104.567 42.7143 124.12 51.6062 132.093L53.5175 129.336Z" fill="#12D4E0"/>
<path d="M59.0365 112.769C59.0365 112.769 58.1126 90.5322 51.2787 87.3988C51.2787 87.3988 48.942 104.997 58.0148 114.226L59.0365 112.769Z" fill="#12D4E0"/>
<path d="M66.3203 93.0106C66.3203 93.0106 66.2811 74.9238 61.4026 70.6807C61.4026 70.6807 56.5534 90.4932 63.7734 96.6476L66.3203 93.0106Z" fill="#12D4E0"/>
<path d="M68.8426 75.8476L64.096 45.7451C64.096 45.7451 57.6483 70.4117 69.0674 81.2834L68.8426 75.8476Z" fill="#12D4E0"/>
<path d="M69.7666 45.926C69.7666 45.926 57.5848 25.6883 57.8341 23.4396C57.8341 23.4396 59.1295 44.6502 74.4545 55.2139L69.7666 45.926Z" fill="#12D4E0"/>
<path d="M71.194 39.9476C71.194 39.9476 59.6966 11.2041 54.4954 8.87726C54.4954 8.87726 70.9202 17.2266 72.1521 39.1264L71.194 39.9476Z" fill="#12D4E0"/>
<path d="M64.8147 95.8214L64.0277 95.5819C73.7311 63.9396 76.1508 43.7654 70.847 38.7059L71.4091 38.1096C77.0356 43.4476 74.7527 63.4019 64.8147 95.8214Z" fill="#444053"/>
<path d="M38.095 169.909L36.9316 169.494C37.963 166.595 39.0727 163.652 40.2361 160.753C50.3648 135.51 58.9878 112.026 64.5165 93.9981L65.5284 93.5092C59.9899 111.572 51.5184 135.955 41.38 161.232C40.2214 164.077 39.1167 167.006 38.095 169.909Z" fill="#444053"/>
<path d="M62.5758 344.071C62.4194 343.9 46.6936 326.19 35.729 295.955C29.3044 278.254 25.729 259.646 25.1359 240.824C24.3831 217.297 29.3204 191.027 37.7772 167.162L38.6962 168.237C19.7099 221.799 27.2526 267.696 37.259 295.334C48.1063 325.295 63.6561 342.81 63.8077 342.986L62.5758 344.071Z" fill="#444053"/>
<path d="M308.323 306.47C308.323 306.47 297.241 319.996 306.04 340.444L217.561 378.818L209.07 380.597L205.159 363.488L207.774 341.896V330.096L308.323 306.47Z" fill="#D5D6DB"/>
<path d="M28.9195 297.73L151.382 275.405L313.651 301.254L212.863 337.541L28.9195 297.73Z" fill="#12D4E0"/>
<path d="M28.9195 297.73L151.382 275.405L313.651 301.254L212.863 337.541L28.9195 297.73Z" fill="#12D4E0"/>
<path d="M28.9194 297.725C28.9194 297.725 17.466 319.424 30.6646 339.466L212.267 378.818C212.267 378.818 200.994 361.532 212.848 337.54L28.9194 297.725Z" fill="#12D4E0"/>
<path opacity="0.1" d="M28.9194 297.725C28.9194 297.725 17.466 319.424 30.6646 339.466L212.267 378.818C212.267 378.818 200.994 361.532 212.848 337.54L28.9194 297.725Z" fill="black"/>
<path opacity="0.1" d="M34.3309 305.248C34.3309 305.248 27.7854 321.125 34.3309 331.401Z" fill="black"/>
<path d="M212.267 378.818L313.651 335.556C313.651 335.556 319.322 336.778 315.655 340.933C311.989 345.088 214.222 382.973 214.222 382.973L30.6647 339.467L212.267 378.818Z" fill="#12D4E0"/>
<path opacity="0.1" d="M212.267 378.818L313.651 335.556C313.651 335.556 319.322 336.778 315.655 340.933C311.989 345.088 214.222 382.973 214.222 382.973L30.6647 339.467L212.267 378.818Z" fill="black"/>
<path opacity="0.1" d="M203.957 341.911C203.957 341.911 194.18 353.643 203.957 371.241Z" fill="black"/>
<path opacity="0.1" d="M251.289 341.712L207.436 356.343L207.591 356.806L251.444 342.176L251.289 341.712Z" fill="black"/>
<path opacity="0.1" d="M260.073 340.256L207.422 360.278L207.596 360.734L260.246 340.713L260.073 340.256Z" fill="black"/>
<path opacity="0.1" d="M268.139 340.186L207.716 364.918L207.901 365.371L268.324 340.639L268.139 340.186Z" fill="black"/>
<path opacity="0.1" d="M276.911 338.069L208.422 369.007L208.623 369.453L277.112 338.514L276.911 338.069Z" fill="black"/>
<path opacity="0.1" d="M284.281 338.079L208.964 371L209.159 371.447L284.477 338.526L284.281 338.079Z" fill="black"/>
<path opacity="0.1" d="M300.4 335.341L210.099 374.343L210.293 374.792L300.594 335.79L300.4 335.341Z" fill="black"/>
<path opacity="0.3" d="M74.4154 300.115L160.45 282.028L212.863 292.05L142.363 314.78L74.4154 300.115Z" fill="white"/>
<path d="M313.651 301.254C313.651 301.254 318.1 303.048 315.489 305.82C312.879 308.592 212.849 337.54 212.849 337.54L313.651 301.254Z" fill="#12D4E0"/>
<path d="M356.859 259.454C356.859 259.454 345.782 272.975 354.581 293.428L266.102 331.802L257.611 333.591L253.7 316.482L256.355 294.895V283.079L356.859 259.454Z" fill="#D5D6DB"/>
<path d="M77.4608 250.709L199.919 228.388L362.192 254.238L261.404 290.524L77.4608 250.709Z" fill="#3A3768"/>
<path d="M77.4414 250.709C77.4414 250.709 65.9831 272.408 79.1816 292.45L260.784 331.802C260.784 331.802 249.516 314.502 261.385 290.519L77.4414 250.709Z" fill="#3A3768"/>
<path opacity="0.1" d="M77.4414 250.709C77.4414 250.709 65.9831 272.408 79.1816 292.45L260.784 331.802C260.784 331.802 249.516 314.502 261.385 290.519L203.957 278.088L77.4414 250.709Z" fill="black"/>
<path opacity="0.1" d="M82.8672 258.232C82.8672 258.232 76.3267 274.104 82.8672 284.385Z" fill="black"/>
<path d="M260.803 331.802L362.193 288.54C362.193 288.54 367.858 289.762 364.192 293.917C360.526 298.072 262.759 335.957 262.759 335.957L79.201 292.45L260.803 331.802Z" fill="#3A3768"/>
<path opacity="0.1" d="M260.803 331.802L362.193 288.54C362.193 288.54 367.858 289.762 364.192 293.917C360.526 298.072 262.759 335.957 262.759 335.957L79.201 292.45L260.803 331.802Z" fill="black"/>
<path opacity="0.1" d="M252.493 294.895C252.493 294.895 242.716 306.627 252.493 324.225Z" fill="black"/>
<path opacity="0.1" d="M299.829 294.701L255.976 309.332L256.131 309.795L299.984 295.165L299.829 294.701Z" fill="black"/>
<path opacity="0.1" d="M308.619 293.243L255.969 313.264L256.142 313.721L308.793 293.7L308.619 293.243Z" fill="black"/>
<path opacity="0.1" d="M316.678 293.166L256.255 317.898L256.441 318.351L316.864 293.619L316.678 293.166Z" fill="black"/>
<path opacity="0.1" d="M325.456 291.049L256.966 321.988L257.167 322.434L325.657 291.495L325.456 291.049Z" fill="black"/>
<path opacity="0.1" d="M332.819 291.053L257.502 323.974L257.697 324.422L333.014 291.501L332.819 291.053Z" fill="black"/>
<path opacity="0.1" d="M348.942 288.315L258.641 327.317L258.835 327.766L349.136 288.764L348.942 288.315Z" fill="black"/>
<path opacity="0.45" d="M122.957 253.099L208.992 235.012L261.405 245.033L190.905 267.764L122.957 253.099Z" fill="white"/>
<path d="M362.192 254.238C362.192 254.238 366.636 256.032 364.03 258.799C361.425 261.566 261.405 290.52 261.405 290.52L362.192 254.238Z" fill="#3A3768"/>
<path d="M361.454 205.668C361.454 205.668 350.373 229.948 359.172 250.396L270.692 278.015L262.221 279.809L258.31 262.7L260.925 241.108V229.293L361.454 205.668Z" fill="#D5D6DB"/>
<path d="M82.0704 196.927L204.533 174.602L366.807 200.452L266.014 236.738L82.0704 196.927Z" fill="#12D4E0"/>
<path d="M82.0706 196.922C82.0706 196.922 70.5977 218.622 83.7962 238.664L265.398 278.015C265.398 278.015 254.126 260.715 265.995 236.738L82.0706 196.922Z" fill="#12D4E0"/>
<path opacity="0.1" d="M82.0706 196.922C82.0706 196.922 70.5977 218.622 83.7962 238.664L265.398 278.015C265.398 278.015 254.126 260.715 265.995 236.738L82.0706 196.922Z" fill="black"/>
<path opacity="0.1" d="M87.4819 204.445C87.4819 204.445 80.9364 220.323 87.4819 230.598Z" fill="black"/>
<path d="M265.418 278.015L366.802 245.508C366.802 245.508 372.473 246.73 368.806 250.885C365.14 255.04 267.373 282.17 267.373 282.17L83.8156 238.664L265.418 278.015Z" fill="#12D4E0"/>
<path opacity="0.1" d="M257.108 241.108C257.108 241.108 247.331 252.84 257.108 270.438Z" fill="black"/>
<path opacity="0.1" d="M304.445 240.914L260.592 255.544L260.747 256.008L304.6 241.378L304.445 240.914Z" fill="black"/>
<path opacity="0.1" d="M313.232 239.458L260.581 259.479L260.755 259.936L313.406 239.915L313.232 239.458Z" fill="black"/>
<path opacity="0.1" d="M321.287 239.384L260.864 264.116L261.049 264.568L321.472 239.836L321.287 239.384Z" fill="black"/>
<path opacity="0.1" d="M330.071 237.262L261.581 268.201L261.783 268.647L330.272 237.708L330.071 237.262Z" fill="black"/>
<path opacity="0.1" d="M337.436 237.271L262.119 270.192L262.315 270.64L337.631 237.719L337.436 237.271Z" fill="black"/>
<path opacity="0.1" d="M353.558 234.537L263.257 273.538L263.451 273.987L353.751 234.985L353.558 234.537Z" fill="black"/>
<path opacity="0.3" d="M127.566 199.313L213.601 181.226L266.014 191.247L195.514 213.978L127.566 199.313Z" fill="white"/>
<path d="M366.802 200.452C366.802 200.452 371.25 202.246 368.64 205.017C366.03 207.789 266.014 236.738 266.014 236.738L366.802 200.452Z" fill="#12D4E0"/>
<path d="M151.744 52.0609C151.744 52.0609 133.168 50.9415 135.339 63.9738C135.339 63.9738 134.904 66.2763 136.991 67.3224C136.991 67.3224 137.025 66.3447 138.898 66.682C139.566 66.7968 140.245 66.8296 140.921 66.7798C141.833 66.7174 142.699 66.3605 143.39 65.763V65.763C143.39 65.763 148.616 63.6023 150.649 55.0575C150.649 55.0575 152.155 53.195 152.116 52.716L148.968 54.0554C148.968 54.0554 150.038 56.3187 149.197 58.2007C149.197 58.2007 149.095 54.1385 148.489 54.2314C148.366 54.2314 146.861 55.0184 146.861 55.0184C146.861 55.0184 148.704 58.9633 147.31 61.8279C147.31 61.8279 147.838 56.9688 146.284 55.3019L144.074 56.5924C144.074 56.5924 146.23 60.6644 144.769 63.9885C144.769 63.9885 145.145 58.89 143.61 56.9053L141.606 58.4696C141.606 58.4696 143.634 62.4829 142.398 65.2399C142.398 65.2399 142.236 59.3055 141.176 58.8557C141.176 58.8557 139.421 60.4005 139.157 61.0359C139.157 61.0359 140.545 63.969 139.68 65.4892C139.68 65.4892 139.157 61.5346 138.702 61.515C138.702 61.515 136.957 64.1352 136.776 65.9145C136.861 64.2557 137.378 62.6479 138.277 61.251C137.271 61.4413 136.343 61.9223 135.608 62.6344C135.608 62.6344 135.877 60.7817 138.712 60.6204C138.712 60.6204 140.154 58.6309 140.54 58.5136C140.54 58.5136 137.72 58.274 136.013 59.0317C136.013 59.0317 137.519 57.2866 141.053 58.054L143.009 56.4409C143.009 56.4409 139.303 55.9521 137.729 56.4947C137.729 56.4947 139.543 54.9499 143.542 56.0743L145.697 54.7886C145.697 54.7886 142.535 54.1091 140.653 54.3536C140.653 54.3536 142.637 53.283 146.328 54.4416L147.863 53.7523C147.863 53.7523 145.551 53.2977 144.871 53.2244C144.192 53.151 144.157 52.9653 144.157 52.9653C145.625 52.7243 147.131 52.8934 148.508 53.4541C148.508 53.4541 151.808 52.2662 151.744 52.0609Z" fill="#12D4E0"/>
<path opacity="0.1" d="M413.075 105.627C413.075 105.627 394.5 104.508 396.67 117.54C396.67 117.54 396.235 119.843 398.322 120.889C398.322 120.889 398.357 119.911 400.229 120.248C400.897 120.361 401.577 120.393 402.253 120.346C403.156 120.28 404.013 119.923 404.697 119.329V119.329C404.697 119.329 409.927 117.169 411.956 108.624C411.956 108.624 413.462 106.761 413.423 106.282L410.284 107.622C410.284 107.622 411.355 109.885 410.514 111.767C410.514 111.767 410.411 107.705 409.81 107.798C409.688 107.798 408.177 108.585 408.177 108.585C408.177 108.585 410.02 112.53 408.632 115.394C408.632 115.394 409.16 110.535 407.6 108.868L405.391 110.159C405.391 110.159 407.547 114.231 406.085 117.555C406.085 117.555 406.461 112.456 404.927 110.472L402.927 112.036C402.927 112.036 404.951 116.049 403.714 118.806C403.714 118.806 403.553 112.872 402.492 112.422C402.492 112.422 400.742 113.967 400.473 114.602C400.473 114.602 401.862 117.535 401.001 119.056C401.001 119.056 400.473 115.101 400.023 115.081C400.023 115.081 398.278 117.702 398.097 119.481C398.182 117.821 398.701 116.213 399.603 114.817C398.596 115.008 397.667 115.489 396.929 116.201C396.929 116.201 397.203 114.348 400.033 114.187C400.033 114.187 401.475 112.197 401.862 112.075C401.862 112.075 399.046 111.84 397.335 112.598C397.335 112.598 398.841 110.853 402.375 111.621L404.33 110.007C404.33 110.007 400.62 109.519 399.051 110.061C399.051 110.061 400.859 108.516 404.863 109.641L407.014 108.355C407.014 108.355 403.851 107.676 401.969 107.92C401.969 107.92 403.954 106.849 407.644 108.008L409.184 107.319C409.184 107.319 406.867 106.864 406.188 106.791C405.508 106.717 405.474 106.532 405.474 106.532C406.942 106.288 408.448 106.457 409.825 107.021C409.825 107.021 413.134 105.833 413.075 105.627Z" fill="#12D4E0"/>
<path opacity="0.1" d="M183.03 132.572C183.03 132.572 174.935 115.79 164.63 124.061C164.63 124.061 162.406 124.804 162.513 127.136C162.513 127.136 163.369 126.691 163.98 128.49C164.208 129.126 164.51 129.733 164.879 130.299C165.379 131.066 166.115 131.649 166.976 131.961C166.976 131.961 171.41 135.471 179.862 133.075C179.862 133.075 182.223 133.481 182.609 133.198L179.911 131.11C179.911 131.11 178.444 133.149 176.401 133.33C176.401 133.33 179.901 131.262 179.525 130.783C179.447 130.685 178.058 129.742 178.058 129.742C178.058 129.742 175.511 133.276 172.334 133.457C172.334 133.457 176.831 131.55 177.525 129.375L175.326 128.075C175.326 128.075 172.818 131.946 169.205 132.288C169.205 132.288 173.84 130.133 174.822 127.825L172.485 126.848C172.485 126.848 169.968 130.573 166.957 130.842C166.957 130.842 172.06 127.806 171.933 126.657C171.933 126.657 169.728 125.885 169.044 125.958C169.044 125.958 167.177 128.593 165.417 128.593C165.417 128.593 168.609 126.202 168.413 125.816C168.413 125.816 165.275 125.572 163.623 126.305C165.112 125.565 166.769 125.228 168.428 125.327C167.77 124.542 166.896 123.966 165.916 123.67C165.916 123.67 167.666 123.006 169.186 125.396C169.186 125.396 171.63 125.684 171.918 125.963C171.918 125.963 170.75 123.392 169.259 122.272C169.259 122.272 171.518 122.727 172.549 126.183L174.92 127.121C174.92 127.121 173.556 123.641 172.3 122.541C172.3 122.541 174.529 123.367 175.502 127.429L177.672 128.681C177.672 128.681 176.729 125.587 175.594 124.066C175.594 124.066 177.496 125.279 178.283 129.062L179.637 130.069C179.637 130.069 178.904 127.825 178.659 127.2C178.415 126.574 178.537 126.447 178.537 126.447C179.467 127.608 180.056 129.004 180.238 130.48C180.238 130.48 182.854 132.719 183.03 132.572Z" fill="#12D4E0"/>
<path opacity="0.1" d="M370.635 81.9189C370.635 81.9189 362.544 65.1372 352.235 73.4083C352.235 73.4083 350.016 74.1514 350.118 76.4831C350.118 76.4831 350.979 76.0431 351.585 77.8372C351.813 78.4757 352.116 79.0846 352.489 79.6508C352.987 80.4162 353.722 80.9981 354.581 81.3079V81.3079C354.581 81.3079 359.02 84.8177 367.467 82.4273C367.467 82.4273 369.828 82.8282 370.219 82.5447L367.535 80.4524C367.535 80.4524 366.069 82.4958 364.03 82.6766C364.03 82.6766 367.526 80.604 367.149 80.1249C367.071 80.0272 365.683 79.0837 365.683 79.0837C365.683 79.0837 363.141 82.618 359.958 82.7989C359.958 82.7989 364.461 80.8924 365.155 78.722L362.921 77.4314C362.921 77.4314 360.418 81.2981 356.801 81.6452C356.801 81.6452 361.435 79.4846 362.422 77.1772L360.081 76.1996C360.081 76.1996 357.563 79.9294 354.557 80.1934C354.557 80.1934 359.655 77.1577 359.528 76.0138C359.528 76.0138 357.328 75.2366 356.644 75.3148C356.644 75.3148 354.777 77.9447 353.012 77.9447C353.012 77.9447 356.209 75.5543 356.014 75.1681C356.014 75.1681 352.875 74.9237 351.218 75.657C352.707 74.9167 354.364 74.5797 356.023 74.6793C355.367 73.8937 354.496 73.3175 353.516 73.0221C353.516 73.0221 355.266 72.3573 356.786 74.7477C356.786 74.7477 359.23 75.041 359.518 75.3197C359.518 75.3197 358.35 72.7435 356.854 71.6241C356.854 71.6241 359.113 72.0836 360.144 75.5592L362.52 76.4978C362.52 76.4978 361.156 73.0124 359.9 71.9125C359.9 71.9125 362.129 72.7386 363.097 76.8008L365.272 78.0523C365.272 78.0523 364.324 74.9628 363.19 73.4377C363.19 73.4377 365.096 74.65 365.878 78.4336L367.232 79.4406C367.232 79.4406 366.504 77.1968 366.255 76.5711C366.005 75.9454 366.132 75.8232 366.132 75.8232C367.06 76.9849 367.647 78.3808 367.829 79.8561C367.829 79.8561 370.483 82.0754 370.635 81.9189Z" fill="#12D4E0"/>
<path opacity="0.1" d="M396.489 164.928C396.489 164.928 388.399 148.141 378.075 156.413C378.075 156.413 375.855 157.156 375.958 159.487C375.958 159.487 376.818 159.047 377.425 160.841C377.651 161.48 377.953 162.089 378.324 162.655C378.822 163.42 379.557 164.002 380.416 164.312C380.416 164.312 384.855 167.827 393.307 165.432C393.307 165.432 395.663 165.837 396.054 165.549L393.356 163.462C393.356 163.462 391.889 165.505 389.846 165.686C389.846 165.686 393.341 163.613 392.965 163.134C392.887 163.036 391.498 162.093 391.498 162.093C391.498 162.093 388.956 165.627 385.774 165.813C385.774 165.813 390.276 163.902 390.97 161.731L388.766 160.431C388.766 160.431 386.263 164.302 382.645 164.645C382.645 164.645 387.28 162.484 388.267 160.177L385.926 159.199C385.926 159.199 383.408 162.924 380.402 163.193C380.402 163.193 385.505 160.157 385.378 159.008C385.378 159.008 383.173 158.231 382.489 158.309C382.489 158.309 380.622 160.939 378.857 160.939C378.857 160.939 382.054 158.549 381.858 158.163C381.858 158.163 378.72 157.918 377.063 158.651C378.554 157.912 380.212 157.575 381.873 157.674C381.216 156.887 380.342 156.311 379.36 156.017C379.36 156.017 381.11 155.347 382.631 157.742C382.631 157.742 385.075 158.031 385.363 158.309C385.363 158.309 384.195 155.738 382.704 154.614C382.704 154.614 384.963 155.073 385.994 158.549L388.365 159.487C388.365 159.487 387.001 156.002 385.745 154.907C385.745 154.907 387.974 155.728 388.942 159.795L391.117 161.042C391.117 161.042 390.169 157.952 389.035 156.427C389.035 156.427 390.941 157.64 391.728 161.428L393.082 162.406C393.082 162.406 392.349 160.162 392.104 159.536C391.86 158.911 391.982 158.788 391.982 158.788C392.912 159.949 393.499 161.345 393.679 162.821C393.679 162.821 396.338 165.075 396.489 164.928Z" fill="#12D4E0"/>
<path opacity="0.1" d="M98.7203 383.325C104.927 383.325 109.959 382.762 109.959 382.069C109.959 381.375 104.927 380.812 98.7203 380.812C92.5136 380.812 87.482 381.375 87.482 382.069C87.482 382.762 92.5136 383.325 98.7203 383.325Z" fill="#12D4E0"/>
<path opacity="0.1" d="M25.0479 361.973C31.2547 361.973 36.2863 361.41 36.2863 360.716C36.2863 360.022 31.2547 359.46 25.0479 359.46C18.8412 359.46 13.8096 360.022 13.8096 360.716C13.8096 361.41 18.8412 361.973 25.0479 361.973Z" fill="#12D4E0"/>
<path opacity="0.1" d="M154.878 397.506C161.084 397.506 166.116 396.943 166.116 396.25C166.116 395.556 161.084 394.993 154.878 394.993C148.671 394.993 143.639 395.556 143.639 396.25C143.639 396.943 148.671 397.506 154.878 397.506Z" fill="#12D4E0"/>
<path opacity="0.1" d="M349.136 360.521C355.342 360.521 360.374 359.958 360.374 359.264C360.374 358.571 355.342 358.008 349.136 358.008C342.929 358.008 337.897 358.571 337.897 359.264C337.897 359.958 342.929 360.521 349.136 360.521Z" fill="#12D4E0"/>
<path opacity="0.1" d="M288.637 390.252C295.978 390.252 301.929 389.23 301.929 387.969C301.929 386.708 295.978 385.686 288.637 385.686C281.297 385.686 275.346 386.708 275.346 387.969C275.346 389.23 281.297 390.252 288.637 390.252Z" fill="#12D4E0"/>
<path d="M294.567 365.023C294.567 365.023 276.06 374.584 285.621 385.847C285.621 385.847 286.521 388.291 289.121 388.12C289.121 388.12 288.603 387.172 290.588 386.414C291.294 386.141 291.965 385.785 292.587 385.353C293.428 384.772 294.056 383.933 294.376 382.963V382.963C294.376 382.963 298.16 377.899 295.227 368.528C295.227 368.528 295.608 365.878 295.276 365.448L293.027 368.533C293.027 368.533 295.349 370.092 295.618 372.385C295.618 372.385 293.174 368.538 292.685 368.963C292.578 369.051 291.571 370.649 291.571 370.649C291.571 370.649 295.599 373.382 295.897 376.931C295.897 376.931 293.629 371.959 291.179 371.251L289.777 373.753C289.777 373.753 294.176 376.432 294.665 380.46C294.665 380.46 292.108 375.352 289.498 374.32L288.466 376.965C288.466 376.965 292.71 379.663 293.101 383.017C293.101 383.017 289.552 377.41 288.276 377.586C288.276 377.586 287.474 380.069 287.582 380.837C287.582 380.837 290.578 382.841 290.632 384.811C290.632 384.811 287.865 381.316 287.44 381.545C287.44 381.545 287.264 385.06 288.114 386.888C288.114 386.888 286.648 384.278 286.888 381.545C286.03 382.304 285.413 383.296 285.113 384.4C285.113 384.4 284.316 382.469 286.941 380.69C286.941 380.69 287.191 377.957 287.494 377.62C287.494 377.62 284.654 379.008 283.446 380.709C283.446 380.709 283.891 378.172 287.743 376.911L288.721 374.232C288.721 374.232 284.869 375.865 283.681 377.302C283.681 377.302 284.536 374.785 289.024 373.577L290.353 371.133C290.353 371.133 286.931 372.287 285.26 373.577C285.26 373.577 286.555 371.412 290.764 370.415L291.844 368.875C291.844 368.875 289.361 369.76 288.667 370.077C287.973 370.395 287.836 370.239 287.836 370.239C289.105 369.165 290.646 368.465 292.289 368.215C292.289 368.215 294.738 365.189 294.567 365.023Z" fill="#12D4E0"/>
<path d="M349.498 184.432C346.301 175.746 328.702 174.929 321.067 177.144C315.641 178.723 304.202 180.502 298.092 181.397L297.696 181.02C298.488 180.786 298.507 180.209 298.409 179.353C298.352 178.226 298.369 177.096 298.458 175.971C302.203 177.134 305.537 174.382 305.537 174.382C309.936 172.427 308.753 164.058 309.594 161.77C310.225 160.059 310.904 149.979 311.207 144.954H311.271L311.305 143.268C311.349 142.539 311.368 142.114 311.368 142.114C311.368 142.114 311.799 129.825 312.639 127.337C313.422 125.049 314.057 113.522 314.155 111.694C314.155 111.537 314.155 111.454 314.155 111.454L314.091 110.389C314.135 109.611 314.155 108.746 314.15 107.837C314.15 103.657 313.715 98.3926 313.661 97.5421C313.661 97.4198 313.661 97.2732 313.661 97.0972C313.695 95.313 313.47 86.3771 305.869 82.9992C303.068 81.7478 299.7 80.2569 296.439 78.805C295.599 71.5458 293.677 64.3257 293.844 57.0128C293.844 55.9129 293.941 54.813 294.049 53.718C294.049 54.0358 294.015 54.3584 294.01 54.6957C294.01 55.4045 294.01 56.1182 294.01 56.827C294.298 47.6809 297.754 38.4859 297.432 29.5354C297.402 30.4104 297.339 31.2903 297.256 32.1702C297.424 29.1428 297.108 26.1078 296.317 23.1805C296.024 22.1491 295.628 21.0834 294.782 20.3942C293.983 19.8391 293.066 19.476 292.103 19.3334C289.79 18.7413 287.44 18.3036 285.069 18.0233C284.709 16.9204 284.174 15.8823 283.485 14.9485C278.528 8.14396 271.186 1.75001 262.504 0.283502C258.149 -0.44975 253.138 0.161293 250.176 3.27517C249.867 3.54872 249.576 3.84267 249.306 4.15507C247.712 6.05664 247.028 8.55459 245.395 10.4513C245.288 10.5784 245.165 10.6957 245.048 10.8179C241.851 13.6776 236.87 14.274 233.316 16.8403C232.69 17.301 232.103 17.8128 231.561 18.3704C230.129 19.7894 228.845 21.3503 227.729 23.029C226.13 25.2776 224.488 27.6191 223.979 30.3028C222.958 35.68 226.619 40.7786 227.299 46.19C228.814 58.2984 215.415 69.043 217.952 80.9901C218.629 83.9252 220.124 86.6082 222.264 88.7284C217.038 93.4603 212.589 98.0504 212.589 98.0504V98.3242H211.763L211.846 99.3019H211.763L212.218 104.606L211.763 112.329C211.763 112.329 211.763 112.412 211.763 112.569V112.608V112.818C211.763 112.818 211.763 112.901 211.763 113.058H211.793C211.944 115.888 212.546 126.066 213.259 128.212C214.1 130.7 214.525 142.989 214.525 142.989C214.525 142.989 215.454 160.357 216.305 162.655C217.155 164.952 215.948 173.297 220.362 175.267C221.653 176.257 223.182 176.891 224.796 177.105C224.571 178.933 224.713 180.258 225.441 180.673C225.753 180.857 226.106 180.957 226.468 180.967C226.168 181.411 225.902 181.876 225.671 182.36C223.919 182.177 222.197 181.771 220.548 181.152C215.806 179.197 200.07 174.797 195.5 177.892C190.929 180.986 179.93 183.792 185.009 196.248C190.088 208.703 192.454 209.016 192.454 209.016C194.018 210.151 195.389 211.529 196.517 213.098C198.042 215.39 212.252 220.635 215.806 220.635C217.317 220.612 218.827 220.687 220.328 220.86C220.328 220.86 216.471 224.243 216.984 226.208C217.497 228.173 215.811 243.904 215.811 243.904C215.811 243.904 219.722 247.844 221.393 242.677L221.452 242.755C221.765 243.181 223.456 245.102 226.639 242.677C227.941 241.689 229.324 240.812 230.774 240.057L246.182 237.877C247.789 237.776 249.399 237.765 251.007 237.842C253.451 238.043 255.851 236.596 257.362 235.477C260.554 236.689 264.142 238.014 265.848 238.498C269.309 239.475 285.216 243.743 288.936 242.408C289.709 242.101 290.397 241.611 290.94 240.981L294.489 241.093L292.827 241.426C292.827 241.426 296.063 241.479 300.462 241.538L300.277 241.646L305.796 241.597C313.871 241.67 322.944 241.694 324.137 241.426C326.004 241.01 335.707 241.303 338.567 241.426H339.364C339.364 241.426 350.025 239.299 345.626 228.481C342.243 220.171 331.846 217.756 327.231 217.091C328.531 216.832 329.651 216.632 330.394 216.515C333.615 216.026 339.872 213.093 340.381 212.091C340.889 211.089 346.134 208.18 347.488 206.523C348.842 204.866 352.709 193.119 349.498 184.432ZM261.189 208.742L260.666 208.913L260.314 209.031L259.64 209.695C259.102 209.334 258.525 208.952 257.924 208.561C258.985 208.625 260.075 208.688 261.189 208.742Z" fill="url(#paint0_linear)"/>
<path d="M292.357 157.2C292.357 157.2 299.837 176.753 304.09 174.798C308.342 172.842 307.189 164.532 308 162.254C308.812 159.976 309.711 142.701 309.711 142.701C309.711 142.701 310.122 130.48 310.933 128.006C311.686 125.733 312.297 114.27 312.4 112.466C312.4 112.31 312.4 112.227 312.4 112.227L311.593 98.0506L307.027 96.9116L296.439 100.822L294.973 109.196L294.401 112.466L294.156 113.86L292.357 157.2Z" fill="#BE6F72"/>
<path opacity="0.1" d="M294.821 153.924C294.821 153.924 301.958 159.766 304.109 160.279C306.26 160.793 307.58 165.348 307.58 165.348" fill="black"/>
<path d="M233.869 158.055C233.869 158.055 226.389 177.608 222.136 175.653C217.884 173.698 219.037 165.388 218.226 163.11C217.414 160.832 216.515 143.556 216.515 143.556C216.515 143.556 216.104 131.335 215.293 128.862C214.54 126.589 213.929 115.126 213.826 113.322C213.826 113.165 213.826 113.082 213.826 113.082L214.638 98.906L219.203 97.767L229.792 101.678L231.258 110.051L231.83 113.322L232.075 114.715L233.869 158.055Z" fill="#BE6F72"/>
<path d="M282.571 53.415H265.877V79.4357H282.571V53.415Z" fill="#3E373A"/>
<path opacity="0.1" d="M282.571 53.415H265.877V79.4357H282.571V53.415Z" fill="black"/>
<path d="M230.935 177.53C230.935 177.53 225.231 183.802 227.347 184.941C229.464 186.08 243.156 207.427 243.156 207.427C243.156 207.427 288.129 212.966 296.61 204.656C305.092 196.345 304.921 181.499 304.921 181.499C304.921 181.499 298.106 182.966 297.363 182.169C296.62 181.372 292.538 177.53 292.538 177.53C292.538 177.53 234.846 174.03 230.935 177.53Z" fill="#4B4B5B"/>
<path opacity="0.02" d="M230.935 177.53C230.935 177.53 225.231 183.802 227.347 184.941C229.464 186.08 243.156 207.427 243.156 207.427C243.156 207.427 288.129 212.966 296.61 204.656C305.092 196.345 304.921 181.499 304.921 181.499C304.921 181.499 298.106 182.966 297.363 182.169C296.62 181.372 292.538 177.53 292.538 177.53C292.538 177.53 234.846 174.03 230.935 177.53Z" fill="black"/>
<path d="M311.896 98.2556L297.231 109.988L292.798 110.31L291.17 110.428L263.829 112.432L235.477 110.359L231.258 110.051L225.881 109.66L214.638 98.9058C214.638 98.9058 222.596 90.3805 229.567 84.6269C232.314 82.3539 234.91 80.5158 236.801 79.7924L237.124 79.6799C238.314 79.2159 239.376 78.4753 240.223 77.5193C245.728 71.8439 250.816 57.8388 250.816 57.8388C250.816 57.8388 275.097 45.2953 272.164 61.7495C269.231 78.2037 283.079 74.1366 283.079 74.1366L287.645 76.219L289.449 77.0451L294.049 79.152L304.427 83.9132C312.571 87.6626 311.896 98.2556 311.896 98.2556Z" fill="#BE6F72"/>
<path opacity="0.1" d="M262.69 71.2378C274.75 71.2378 284.526 61.4614 284.526 49.4016C284.526 37.3417 274.75 27.5653 262.69 27.5653C250.63 27.5653 240.854 37.3417 240.854 49.4016C240.854 61.4614 250.63 71.2378 262.69 71.2378Z" fill="black"/>
<path opacity="0.1" d="M311.93 113.811H213.826C213.826 113.654 213.826 113.571 213.826 113.571L214.638 99.3948C214.638 99.3948 222.596 90.8695 229.567 85.1159L291.16 82.6718L294.024 79.6508L304.402 84.412C312.551 88.1565 311.896 98.7495 311.896 98.7495C311.896 98.7495 313.011 111.024 311.93 113.811Z" fill="black"/>
<path d="M311.93 113.322H213.826C213.826 113.165 213.826 113.082 213.826 113.082L214.638 98.906C214.638 98.906 222.596 90.3808 229.567 84.6272L291.16 82.183L294.024 79.162L304.402 83.9232C312.551 87.6677 311.896 98.2608 311.896 98.2608C311.896 98.2608 313.011 110.535 311.93 113.322Z" fill="#E7C7CA"/>
<path opacity="0.1" d="M246.964 73.5698C246.964 73.5698 262.441 93.2894 283.055 73.164C303.669 53.0387 285.338 118.054 285.338 118.054L240.854 123.333L246.964 73.5698Z" fill="black"/>
<path d="M246.964 74.5474C246.964 74.5474 262.441 94.2671 283.055 74.1417C303.669 54.0164 285.338 119.031 285.338 119.031L240.854 124.311L246.964 74.5474Z" fill="#E7C7CA"/>
<path opacity="0.1" d="M289.424 78.0082L291.062 102.983L292.817 111.293L294.156 117.648C294.156 117.648 297.578 166.531 296.6 168.976C295.623 171.42 297.089 173.375 297.295 174.675C297.5 175.976 297.089 179.241 297.251 180.708C297.412 182.174 297.251 182.824 293.506 182.301C289.762 181.778 284.541 180.869 284.541 180.869C284.541 180.869 271.342 181.847 266.782 180.219C262.221 178.591 253.583 178.586 253.583 178.586C253.583 178.586 240.546 178.914 236.313 178.425C232.079 177.936 229.792 183.641 227.025 182.008C224.258 180.375 230.28 164.576 232.236 160.01C234.191 155.445 229.63 143.879 229.63 143.879L235.496 111.337L236.801 103.96V80.7702L237.124 80.6577C238.314 80.1937 239.376 79.4531 240.223 78.4971L241.69 101.834L287.64 103.467V77.2017" fill="black"/>
<path d="M289.424 77.0306L291.062 102.005L292.817 110.315L294.156 116.67C294.156 116.67 297.578 165.554 296.6 167.998C295.623 170.442 297.089 172.397 297.295 173.698C297.5 174.998 297.089 178.263 297.251 179.73C297.412 181.196 297.251 181.847 293.506 181.324C289.762 180.8 284.541 179.891 284.541 179.891C284.541 179.891 271.342 180.869 266.782 179.241C262.221 177.613 253.583 177.608 253.583 177.608C253.583 177.608 240.546 177.936 236.313 177.447C232.079 176.958 229.792 182.663 227.025 181.03C224.258 179.398 230.28 163.598 232.236 159.033C234.191 154.467 229.63 142.901 229.63 142.901L235.496 110.359L236.801 102.983V79.7925L237.124 79.6801C238.314 79.2161 239.376 78.4755 240.223 77.5195L241.69 100.856L287.64 102.489V76.2241" fill="#E7C7CA"/>
<path opacity="0.1" d="M294.709 24.911C294.43 23.8893 294.044 22.8286 293.242 22.1442C292.477 21.5945 291.593 21.2328 290.661 21.0883C288.432 20.502 286.165 20.0676 283.876 19.788C283.549 18.7026 283.055 17.675 282.41 16.7426C277.619 9.9771 270.531 3.59781 262.192 2.15574C257.826 1.39805 252.767 2.07753 249.971 5.51893C248.436 7.41072 247.776 9.91844 246.226 11.776C243.239 15.3836 237.848 15.8285 234.083 18.6197C232.074 20.0862 230.618 22.2126 229.195 24.2755C227.655 26.5095 226.071 28.8364 225.583 31.5054C224.605 36.8386 228.129 41.9225 228.78 47.3045C230.246 59.3445 217.341 70.0256 219.78 81.9043C221.203 88.8311 227.602 93.7096 234.22 96.1831C236.552 97.0582 239.216 97.9283 240.306 100.167C240.795 101.145 240.878 102.274 241.338 103.261C242.883 106.556 247.962 106.683 250.689 104.283C253.417 101.883 254.277 98.0016 254.6 94.3794C255.91 78.5607 249.575 62.9326 250.313 47.0748C250.533 42.2793 251.882 36.8386 256.179 34.6682C261.962 31.7351 268.918 36.6235 275.283 35.6898C278.294 43.0181 278.934 51.1061 277.111 58.8166C276.099 63.0353 274.349 67.1268 274.222 71.4774C274.031 78.1011 277.604 84.1529 280.694 90.0092C281.357 91.1043 281.8 92.318 281.999 93.5826C282.048 94.8656 281.809 96.1433 281.3 97.3221C279.555 102.02 276.544 106.38 276.202 111.381C276.101 111.965 276.233 112.565 276.568 113.053C276.913 113.379 277.357 113.579 277.829 113.62C283.109 114.524 287.675 109.846 290.251 105.148C293.123 99.9598 294.797 94.1938 295.149 88.2738C295.682 78.3211 292.113 68.5298 292.333 58.5673C292.587 47.241 297.705 35.8365 294.709 24.911Z" fill="black"/>
<path d="M295.198 24.4221C294.919 23.4005 294.533 22.3397 293.731 21.6553C292.966 21.1056 292.081 20.7439 291.15 20.5994C288.92 20.0131 286.654 19.5787 284.365 19.2991C284.038 18.2137 283.543 17.1861 282.899 16.2537C278.108 9.48821 271.02 3.10892 262.68 1.66685C258.315 0.909159 253.256 1.58864 250.46 5.03004C248.925 6.92183 248.265 9.42955 246.715 11.2871C243.728 14.8947 238.336 15.3396 234.572 18.1308C232.563 19.5973 231.107 21.7238 229.684 23.7866C228.144 26.0206 226.56 28.3475 226.072 31.0165C225.094 36.3497 228.618 41.4336 229.269 46.8157C230.735 58.8557 217.83 69.5367 220.269 81.4154C221.692 88.3422 228.09 93.2208 234.709 95.6943C237.041 96.5693 239.705 97.4394 240.795 99.6783C241.284 100.656 241.367 101.785 241.827 102.773C243.371 106.067 248.45 106.194 251.178 103.794C253.906 101.394 254.766 97.5127 255.089 93.8905C256.399 78.0718 250.064 62.4437 250.802 46.5859C251.022 41.7904 252.371 36.3497 256.668 34.1793C262.451 31.2463 269.407 36.1346 275.771 35.2009C278.783 42.5292 279.423 50.6172 277.6 58.3277C276.588 62.5464 274.838 66.6379 274.711 70.9885C274.52 77.6123 278.093 83.664 281.183 89.5203C281.846 90.6154 282.289 91.8291 282.488 93.0937C282.537 94.3767 282.298 95.6544 281.789 96.8332C280.044 101.531 277.033 105.891 276.69 110.892C276.59 111.476 276.722 112.076 277.057 112.564C277.401 112.89 277.846 113.09 278.318 113.131C283.598 114.035 288.163 109.357 290.74 104.659C293.612 99.4709 295.285 93.7049 295.638 87.7849C296.171 77.8322 292.602 68.0409 292.822 58.0784C293.076 46.7521 298.194 35.3476 295.198 24.4221Z" fill="#3E373A"/>
<path d="M284.399 240.864L303.791 241.485L301.01 227.103L286.154 228.516L284.399 240.864Z" fill="#C3C7D9"/>
<path d="M344.487 206.777C343.182 208.405 338.132 211.338 337.643 212.316C337.154 213.293 331.127 216.226 328.028 216.715C324.928 217.204 315.157 219.326 313.363 220.465C312.077 221.286 301.758 223.886 294.978 225.328C293.141 225.763 291.282 226.097 289.41 226.331C286.477 226.492 254.38 215.576 254.38 215.576L260.569 209.221L260.911 209.104C262.661 208.513 270.746 205.78 275.234 204.48C280.288 203.013 286.154 196.986 286.154 196.986C286.154 196.986 294.787 194.053 295.931 193.725C297.075 193.398 292.998 182.321 292.998 182.321C292.998 182.321 311.735 179.72 319.067 177.516C326.4 175.311 343.348 176.127 346.442 184.765C349.536 193.403 345.811 205.149 344.487 206.777Z" fill="#4B4B5B"/>
<path d="M259.102 234.313C259.102 234.313 255.357 238.224 251.608 237.901C247.859 237.579 234.748 238.879 234.748 238.879C232.372 239.827 230.147 241.116 228.144 242.707C225.079 245.121 223.451 243.195 223.148 242.785L223.094 242.707C221.462 247.844 217.717 243.929 217.717 243.929C217.717 243.929 219.345 228.286 218.846 226.331C218.348 224.375 222.068 221.017 222.068 221.017L226.467 219.897L237.613 217.043L253.583 222.581L259.102 234.313Z" fill="#E7C7CA"/>
<path opacity="0.1" d="M226.448 219.897L223.148 242.785L223.094 242.707C221.462 247.844 217.717 243.929 217.717 243.929C217.717 243.929 219.345 228.286 218.846 226.331C218.348 224.375 222.068 221.017 222.068 221.017L226.448 219.897Z" fill="black"/>
<path opacity="0.1" d="M249.511 154.794C249.511 154.794 258.144 157.727 265.642 154.794Z" fill="black"/>
<path opacity="0.1" d="M278.983 160.338C278.983 160.338 282.566 162.127 285.338 160.338Z" fill="black"/>
<path opacity="0.1" d="M278.983 164.581C278.983 164.581 285.01 165.388 286.154 163.76Z" fill="black"/>
<path opacity="0.1" d="M277.028 173.698C277.028 173.698 288.349 172.231 291.16 170.276Z" fill="black"/>
<path opacity="0.1" d="M242.482 170.276C242.482 170.276 248.837 173.859 253.564 173.698Z" fill="black"/>
<path opacity="0.1" d="M294.973 225.329C293.136 225.763 291.278 226.098 289.405 226.331C286.472 226.492 254.375 215.576 254.375 215.576L260.564 209.221L260.906 209.104C261.884 209.793 262.685 210.385 263.257 210.834C265.951 212.956 268.551 210.184 269.529 210.184C270.507 210.184 278.978 217.189 278.978 217.189C278.978 217.189 286.8 218.983 288.105 220.611C289.41 222.239 293.971 221.916 294.782 223.055C295.027 223.407 295.056 224.273 294.973 225.329Z" fill="black"/>
<path d="M234.748 182.986C234.748 182.986 226.839 183.44 222.278 181.519C217.717 179.598 202.563 175.164 198.164 178.278C193.764 181.392 183.171 184.144 188.06 196.531C192.948 208.918 195.231 209.241 195.231 209.241C196.743 210.375 198.064 211.745 199.142 213.298C200.608 215.581 214.296 220.792 217.717 220.792C221.139 220.792 227.167 220.792 235.638 226.658C244.11 232.524 251.77 233.179 251.77 233.179C251.77 233.179 262.524 237.579 265.873 238.556C269.221 239.534 284.522 243.767 288.11 242.467C291.698 241.167 293.976 233.013 293.976 233.013C293.976 233.013 295.604 225.68 294.787 224.541C293.971 223.403 289.41 223.725 288.11 222.097C286.809 220.47 278.983 218.675 278.983 218.675C278.983 218.675 270.531 211.666 269.554 211.666C268.576 211.666 265.975 214.432 263.282 212.316C257.916 208.342 252.279 204.748 246.412 201.561C240.223 198.301 234.748 182.986 234.748 182.986Z" fill="#4B4B5B"/>
<path opacity="0.1" d="M218.847 187.713C220.255 187.425 221.711 187.466 223.1 187.833C224.49 188.2 225.776 188.884 226.859 189.829C230.769 193.09 243.929 199.635 243.929 199.635" fill="black"/>
<path opacity="0.1" d="M316.623 187.507C316.623 187.507 299.187 190.147 295.931 193.73Z" fill="black"/>
<path d="M336.666 241.484H335.898C333.141 241.387 323.799 241.093 322 241.484C319.884 241.973 291.854 241.484 291.854 241.484L297.334 240.345C297.334 240.345 295.3 233.218 296.591 232.627C296.591 232.627 289.258 227.797 294.787 224.536C300.316 221.276 306.275 222.65 306.275 222.65L320.153 217.947L322.817 217.043C322.817 217.043 338.46 217.859 342.693 228.613C346.926 239.368 336.666 241.484 336.666 241.484Z" fill="#E7C7CA"/>
<path opacity="0.1" d="M336.666 241.484H335.898C340.449 237.73 350.744 226.301 320.153 217.971L322.817 217.067C322.817 217.067 338.46 217.883 342.693 228.638C346.926 239.392 336.666 241.484 336.666 241.484Z" fill="black"/>
<path d="M307.907 228.814C308.38 228.814 308.763 228.431 308.763 227.958C308.763 227.486 308.38 227.103 307.907 227.103C307.435 227.103 307.052 227.486 307.052 227.958C307.052 228.431 307.435 228.814 307.907 228.814Z" fill="#4B4B5B"/>
<path d="M302.936 230.226C303.408 230.226 303.792 229.843 303.792 229.371C303.792 228.899 303.408 228.516 302.936 228.516C302.464 228.516 302.081 228.899 302.081 229.371C302.081 229.843 302.464 230.226 302.936 230.226Z" fill="#4B4B5B"/>
<g opacity="0.1">
<path opacity="0.1" d="M278.714 48.5951C278.904 43.2183 277.947 37.8627 275.908 32.8839C269.554 33.8322 262.593 28.9292 256.805 31.8622C252.522 34.0326 251.178 39.4734 250.939 44.2689C250.88 45.5349 250.87 46.801 250.895 48.0671C250.895 47.6174 250.895 47.1628 250.939 46.713C251.163 41.9176 252.508 36.4768 256.805 34.3064C262.593 31.3734 269.544 36.2617 275.908 35.3281C277.635 39.5453 278.586 44.0398 278.714 48.5951V48.5951Z" fill="black"/>
<path opacity="0.1" d="M229.469 47.7005C229.553 46.6353 229.531 45.5645 229.405 44.5035C228.887 40.2018 226.536 36.0907 226.111 31.8965C225.563 36.9559 228.785 41.8149 229.405 46.9477C229.469 47.2117 229.469 47.4463 229.469 47.7005Z" fill="black"/>
<path opacity="0.1" d="M255.226 91.5685C254.923 95.1957 254.067 99.0722 251.315 101.477C248.563 103.882 243.494 103.75 241.964 100.456C241.475 99.4779 241.402 98.3389 240.927 97.3612C239.842 95.1224 237.173 94.2523 234.841 93.3772C228.218 90.8988 221.829 86.0447 220.406 79.0983C220.279 78.4691 220.192 77.8323 220.147 77.1919C220.027 78.6471 220.114 80.1119 220.406 81.5425C221.829 88.4693 228.227 93.343 234.841 95.8214C237.173 96.6964 239.842 97.5666 240.927 99.8054C241.416 100.783 241.499 101.912 241.964 102.9C243.504 106.195 248.583 106.322 251.315 103.921C254.048 101.521 254.898 97.6399 255.226 94.0127C255.375 92.1036 255.425 90.1881 255.378 88.2738C255.378 89.3835 255.314 90.4784 255.226 91.5685Z" fill="black"/>
<path opacity="0.1" d="M292.983 55.7614C292.983 56.4702 292.983 57.1741 292.983 57.878C293.257 48.7857 296.591 39.6445 296.263 30.7428C296.009 38.9748 293.169 47.3925 292.983 55.7614Z" fill="black"/>
<path opacity="0.1" d="M282.493 92.5413C282.613 91.9613 282.651 91.3672 282.606 90.7766C282.409 89.5115 281.965 88.2974 281.3 87.2032C278.475 81.8261 275.253 76.3218 274.872 70.3531C274.872 70.6073 274.838 70.8419 274.833 71.1157C274.637 77.7345 278.211 83.7912 281.3 89.6474C281.825 90.5544 282.227 91.5277 282.493 92.5413V92.5413Z" fill="black"/>
<path opacity="0.1" d="M295.794 85.4678C295.429 91.3902 293.744 97.1559 290.862 102.342C288.281 107.04 283.72 111.718 278.436 110.814C277.962 110.773 277.517 110.571 277.175 110.242C277.075 110.13 276.997 110.001 276.945 109.861C276.886 110.242 276.837 110.628 276.808 111.019C276.707 111.601 276.838 112.2 277.175 112.686C277.517 113.015 277.962 113.217 278.436 113.258C283.72 114.162 288.281 109.484 290.862 104.787C293.744 99.6 295.429 93.8344 295.794 87.912C295.853 86.7681 295.858 85.6292 295.824 84.4902C295.814 84.8177 295.814 85.1403 295.794 85.4678Z" fill="black"/>
</g>
<path opacity="0.1" d="M296.591 232.627C296.591 232.627 308.963 237.818 317.122 226.33" stroke="black" stroke-miterlimit="10"/>
<path opacity="0.1" d="M299.025 241.7C299.025 241.7 309.129 235.13 322 241.485" stroke="black" stroke-miterlimit="10"/>
<path opacity="0.1" d="M231.39 240.209C231.39 240.209 235.633 230.637 246.964 237.935" stroke="black" stroke-miterlimit="10"/>
<path opacity="0.1" d="M217.634 98.6616L226.287 90.8402C226.287 90.8402 259.835 88.6405 261.224 100.045C261.224 100.045 273.117 86.5238 298.131 89.535L308.714 97.9625L279.462 110.799L251.036 120.659L230.1 111.288L217.634 98.6616Z" fill="black"/>
<path d="M217.634 99.1505L226.287 91.3291C226.287 91.3291 259.835 89.1294 261.224 100.534C261.224 100.534 273.117 87.0127 298.131 90.0239L308.714 98.4515L279.462 111.288L251.036 121.148L230.1 111.777L217.634 99.1505Z" fill="#D5D6DB"/>
<path opacity="0.1" d="M213.807 100.128L217.634 145.917L258.207 147.956L256.448 102.362L256.413 101.595L213.807 100.128Z" fill="black"/>
<path d="M213.807 99.1504L217.634 144.94L258.207 146.978L256.448 101.384L256.413 100.617L213.807 99.1504Z" fill="#12D4E0"/>
<path opacity="0.1" d="M310.572 99.1504L268.718 105.427V151.422L309.618 145.512L310.572 99.1504Z" fill="black"/>
<path d="M310.572 98.1727L268.718 104.449V150.444L309.618 144.534L310.572 98.1727Z" fill="#12D4E0"/>
<path opacity="0.3" d="M300.702 109.396L278.093 111.909L278.587 119.613L300.687 117.198L300.702 109.396Z" fill="white"/>
<path d="M219.834 169.459L222.136 175.653C222.136 175.653 225.558 178.586 229.303 177.119C233.047 175.653 236.313 174.925 237.94 173.497C239.568 172.07 241.851 164.899 241.851 164.899C241.851 164.899 244.134 157.077 246.412 155.122C248.69 153.167 254.722 126.227 246.412 128.862C238.102 131.497 231.747 155.938 231.747 155.938C231.747 155.938 230.28 157.727 228.164 157.894C226.047 158.06 221.809 157.566 220.992 159.36C220.176 161.154 217.39 165.876 219.834 169.459Z" fill="#BE6F72"/>
<path opacity="0.1" d="M268.718 105.422C266.575 105.905 264.349 105.88 262.217 105.348C260.086 104.817 258.108 103.794 256.443 102.362L258.208 147.951C258.208 147.951 262.363 152.448 268.718 151.422V105.422Z" fill="black"/>
<path d="M268.718 104.444C266.575 104.927 264.349 104.902 262.217 104.371C260.086 103.839 258.108 102.817 256.443 101.384L258.208 146.973C258.208 146.973 262.363 151.47 268.718 150.444V104.444Z" fill="#12D4E0"/>
<path opacity="0.1" d="M268.718 104.444C266.575 104.927 264.349 104.902 262.217 104.371C260.086 103.839 258.108 102.817 256.443 101.384L258.208 146.973C258.208 146.973 262.363 151.47 268.718 150.444V104.444Z" fill="black"/>
<path opacity="0.1" d="M269.695 99.3068C269.695 99.3068 286.721 94.1007 291.16 94.834Z" fill="black"/>
<path opacity="0.1" d="M250.65 97.0336C250.65 97.0336 234.147 93.123 231.39 94.2327Z" fill="black"/>
<path opacity="0.1" d="M280.43 99.9569C280.43 99.9569 291.815 95.7824 295.931 97.767Z" fill="black"/>
<path opacity="0.1" d="M274.696 204.68C276.46 203.355 278.338 202.189 280.308 201.195C283.241 199.782 288.618 196.116 288.618 196.116" fill="black"/>
<path opacity="0.1" d="M231.39 154.794C231.39 154.794 224.248 160.636 222.102 161.149C219.956 161.663 218.631 166.219 218.631 166.219" fill="black"/>
<path d="M306.373 168.589L304.095 174.798C304.095 174.798 300.673 177.731 296.923 176.264C293.174 174.798 289.918 174.069 288.286 172.642C286.653 171.215 284.375 164.043 284.375 164.043C284.375 164.043 282.097 156.222 279.814 154.267C277.531 152.311 271.504 125.372 279.814 128.006C288.124 130.641 294.479 155.083 294.479 155.083C294.479 155.083 295.946 156.872 298.062 157.038C300.179 157.204 304.417 156.711 305.234 158.505C306.05 160.299 308.817 165.021 306.373 168.589Z" fill="#BE6F72"/>
<path opacity="0.1" d="M302.379 157.17C302.379 157.17 307.047 160.172 307.027 163.76Z" fill="black"/>
<path d="M262.768 70.1673C274.828 70.1673 284.605 60.3908 284.605 48.331C284.605 36.2712 274.828 26.4948 262.768 26.4948C250.709 26.4948 240.932 36.2712 240.932 48.331C240.932 60.3908 250.709 70.1673 262.768 70.1673Z" fill="#BE6F72"/>
<path d="M249.057 42.47C251.706 42.0545 254.028 40.5147 256.56 39.6299C262.226 37.6403 268.493 39.0042 274.227 40.7982C276.426 41.4875 278.66 42.2647 280.968 42.2647C283.275 42.2647 285.724 41.3213 286.902 39.3317C287.987 37.5035 287.777 35.1277 286.863 33.2066C285.949 31.2855 284.419 29.7408 282.874 28.284C277.79 23.4837 271.484 18.9962 264.509 19.485C261.703 19.6854 259.019 20.6875 256.438 21.7972C253.188 23.1977 250.025 24.7909 246.964 26.5682C244.613 27.9321 240.258 29.7554 238.903 32.2485C235.824 37.8652 244.266 43.2228 249.057 42.47Z" fill="#3E373A"/>
<path opacity="0.1" d="M286.902 37.2786C285.724 39.2681 283.275 40.2116 280.968 40.2116C278.66 40.2116 276.426 39.4636 274.222 38.7744C268.488 36.9804 262.226 35.6116 256.555 37.6061C254.028 38.4909 251.701 40.0502 249.052 40.4413C245.19 41.0475 238.972 37.6843 238.297 33.407C237.54 38.3491 244.75 42.5824 249.052 41.9078C251.701 41.4923 254.028 39.9525 256.555 39.0726C262.226 37.0781 268.488 38.4469 274.222 40.2409C276.426 40.9301 278.655 41.7074 280.968 41.6781C283.28 41.6487 285.724 40.7395 286.902 38.7451C287.513 37.6601 287.753 36.4055 287.586 35.1717C287.51 35.9145 287.277 36.6327 286.902 37.2786Z" fill="black"/>
</g>
<defs>
<linearGradient id="paint0_linear" x1="267.217" y1="245.356" x2="267.217" y2="-2.32271e-05" gradientUnits="userSpaceOnUse">
<stop stop-color="#808080" stop-opacity="0.25"/>
<stop offset="0.54" stop-color="#808080" stop-opacity="0.12"/>
<stop offset="1" stop-color="#808080" stop-opacity="0.1"/>
</linearGradient>
<clipPath id="clip0">
<rect width="500" height="397.501" fill="white"/>
</clipPath>
</defs>
</svg>
